<mxfile host="app.diagrams.net" modified="2024-06-27T11:55:30.388Z" agent="Mozilla/5.0 (X11; Ubuntu; Linux x86_64; rv:127.0) Gecko/20100101 Firefox/127.0" etag="YcKX607syhh5yujidK4f" version="24.6.3" type="device">
  <diagram name="Seite-1" id="81J4IQy8sBa2PBddaaJK">
    <mxGraphModel dx="1693" dy="1347" grid="1" gridSize="10" guides="1" tooltips="1" connect="1" arrows="1" fold="1" page="1" pageScale="1" pageWidth="1169" pageHeight="1654" math="0" shadow="0">
      <root>
        <mxCell id="0" />
        <mxCell id="1" parent="0" />
        <mxCell id="5vb7WeYzZgJStsn-Ry1w-6" value="" style="edgeStyle=orthogonalEdgeStyle;rounded=0;orthogonalLoop=1;jettySize=auto;html=1;" edge="1" parent="1" source="5vb7WeYzZgJStsn-Ry1w-1" target="5vb7WeYzZgJStsn-Ry1w-5">
          <mxGeometry relative="1" as="geometry" />
        </mxCell>
        <mxCell id="5vb7WeYzZgJStsn-Ry1w-1" value="Metadaten, Abstracts, Volltexte" style="rounded=1;whiteSpace=wrap;html=1;arcSize=40;fontColor=#000000;fillColor=#ffffc0;strokeColor=#ff0000;" vertex="1" parent="1">
          <mxGeometry x="350" y="140" width="120" height="40" as="geometry" />
        </mxCell>
        <mxCell id="5vb7WeYzZgJStsn-Ry1w-8" value="" style="edgeStyle=orthogonalEdgeStyle;rounded=0;orthogonalLoop=1;jettySize=auto;html=1;" edge="1" parent="1" source="5vb7WeYzZgJStsn-Ry1w-5" target="5vb7WeYzZgJStsn-Ry1w-7">
          <mxGeometry relative="1" as="geometry" />
        </mxCell>
        <mxCell id="5vb7WeYzZgJStsn-Ry1w-5" value="Fragestellung bestimmt Textbereich" style="whiteSpace=wrap;html=1;fillColor=#ffffc0;strokeColor=#ff0000;fontColor=#000000;rounded=1;arcSize=40;" vertex="1" parent="1">
          <mxGeometry x="335" y="240" width="150" height="60" as="geometry" />
        </mxCell>
        <mxCell id="5vb7WeYzZgJStsn-Ry1w-10" value="" style="edgeStyle=orthogonalEdgeStyle;rounded=0;orthogonalLoop=1;jettySize=auto;html=1;" edge="1" parent="1" source="5vb7WeYzZgJStsn-Ry1w-7" target="5vb7WeYzZgJStsn-Ry1w-9">
          <mxGeometry relative="1" as="geometry" />
        </mxCell>
        <mxCell id="5vb7WeYzZgJStsn-Ry1w-7" value="Texte lemmatisieren" style="whiteSpace=wrap;html=1;fillColor=#ffffc0;strokeColor=#ff0000;fontColor=#000000;rounded=1;arcSize=40;" vertex="1" parent="1">
          <mxGeometry x="350" y="360" width="120" height="60" as="geometry" />
        </mxCell>
        <mxCell id="5vb7WeYzZgJStsn-Ry1w-14" value="" style="edgeStyle=orthogonalEdgeStyle;rounded=0;orthogonalLoop=1;jettySize=auto;html=1;" edge="1" parent="1" source="5vb7WeYzZgJStsn-Ry1w-9" target="5vb7WeYzZgJStsn-Ry1w-13">
          <mxGeometry relative="1" as="geometry" />
        </mxCell>
        <mxCell id="5vb7WeYzZgJStsn-Ry1w-9" value="&lt;a title=&quot;Themenmodellierung&quot; href=&quot;https://de.wikipedia.org/wiki/Themenmodellierung&quot;&gt;Themenmodellierung&lt;/a&gt; [1]" style="whiteSpace=wrap;html=1;fillColor=#ffffc0;strokeColor=#ff0000;fontColor=#000000;rounded=1;arcSize=40;" vertex="1" parent="1">
          <mxGeometry x="325" y="470" width="170" height="60" as="geometry" />
        </mxCell>
        <mxCell id="5vb7WeYzZgJStsn-Ry1w-11" value="&lt;div&gt;[1] &lt;span class=&quot;reference-text&quot;&gt;&lt;span id=&quot;Reference-Blei-Ng-Jordan&quot;&gt;David M. Blei, Andrew Y. Ng, Michael I Jordan: &lt;cite style=&quot;font-style:italic&quot;&gt;Latent Dirichlet Allocation&lt;/cite&gt;. In: &lt;cite style=&quot;font-style:italic&quot;&gt;&lt;a title=&quot;Journal of Machine Learning Research&quot; href=&quot;https://de.wikipedia.org/wiki/Journal_of_Machine_Learning_Research&quot;&gt;Journal of Machine Learning Research&lt;/a&gt;&lt;/cite&gt;. 3. Jahrgang, &lt;span style=&quot;white-space:nowrap&quot;&gt;Nr.&lt;span style=&quot;display:inline-block;width:.2em&quot;&gt;&amp;nbsp;&lt;/span&gt;4–5&lt;/span&gt;, Januar 2003, &lt;span style=&quot;white-space:nowrap&quot;&gt;S.&lt;span style=&quot;display:inline-block;width:.2em&quot;&gt;&amp;nbsp;&lt;/span&gt;993–1022&lt;/span&gt;, &lt;a title=&quot;Digital Object Identifier&quot; href=&quot;https://de.wikipedia.org/wiki/Digital_Object_Identifier&quot;&gt;doi&lt;/a&gt;:&lt;span style=&quot;white-space:nowrap&quot; class=&quot;uri-handle&quot;&gt;&lt;a href=&quot;https://doi.org/10.1162/jmlr.2003.3.4-5.993&quot; class=&quot;external text&quot; rel=&quot;nofollow&quot;&gt;10.1162/jmlr.2003.3.4-5.993&lt;/a&gt;&lt;/span&gt; (&lt;a href=&quot;http://jmlr.csail.mit.edu/papers/v3/blei03a.html&quot; class=&quot;external text&quot; rel=&quot;nofollow&quot;&gt;mit.edu&lt;/a&gt;).&lt;/span&gt;&lt;br&gt;&lt;/span&gt;&lt;/div&gt;&lt;div&gt;&lt;div class=&quot;gs_citr&quot; tabindex=&quot;0&quot;&gt;&lt;br&gt;&lt;/div&gt;&lt;div class=&quot;gs_citr&quot; tabindex=&quot;0&quot;&gt;[2] Maier, D., Waldherr, A., Miltner, P., &lt;br/&gt;Wiedemann, G., Niekler, A., Keinert, A., ... &amp;amp; Adam, S. (2021). &lt;br/&gt;Applying LDA topic modeling in communication research: Toward a valid &lt;br/&gt;and reliable methodology. In &lt;i&gt;Computational methods for communication science&lt;/i&gt; (pp. 13-38). Routledge.&lt;/div&gt;&lt;/div&gt;" style="text;strokeColor=none;fillColor=none;align=left;verticalAlign=top;spacingLeft=4;spacingRight=4;overflow=hidden;rotatable=0;points=[[0,0.5],[1,0.5]];portConstraint=eastwest;whiteSpace=wrap;html=1;" vertex="1" parent="1">
          <mxGeometry x="550" y="580" width="600" height="130" as="geometry" />
        </mxCell>
        <mxCell id="5vb7WeYzZgJStsn-Ry1w-28" value="" style="edgeStyle=orthogonalEdgeStyle;rounded=0;orthogonalLoop=1;jettySize=auto;html=1;" edge="1" parent="1" source="5vb7WeYzZgJStsn-Ry1w-13" target="5vb7WeYzZgJStsn-Ry1w-27">
          <mxGeometry relative="1" as="geometry" />
        </mxCell>
        <mxCell id="5vb7WeYzZgJStsn-Ry1w-47" style="rounded=0;orthogonalLoop=1;jettySize=auto;html=1;entryX=0.5;entryY=0;entryDx=0;entryDy=0;" edge="1" parent="1" source="5vb7WeYzZgJStsn-Ry1w-13" target="5vb7WeYzZgJStsn-Ry1w-30">
          <mxGeometry relative="1" as="geometry" />
        </mxCell>
        <mxCell id="5vb7WeYzZgJStsn-Ry1w-13" value="Themen validieren" style="whiteSpace=wrap;html=1;fillColor=#ffffc0;strokeColor=#ff0000;fontColor=#000000;rounded=1;arcSize=40;" vertex="1" parent="1">
          <mxGeometry x="350" y="620" width="120" height="60" as="geometry" />
        </mxCell>
        <mxCell id="5vb7WeYzZgJStsn-Ry1w-16" style="edgeStyle=orthogonalEdgeStyle;rounded=0;orthogonalLoop=1;jettySize=auto;html=1;entryX=0;entryY=0.25;entryDx=0;entryDy=0;curved=1;" edge="1" parent="1" source="5vb7WeYzZgJStsn-Ry1w-15" target="5vb7WeYzZgJStsn-Ry1w-19">
          <mxGeometry relative="1" as="geometry" />
        </mxCell>
        <mxCell id="5vb7WeYzZgJStsn-Ry1w-24" value="&lt;div&gt;Können diese Themen gedeutet werden,&amp;nbsp;&lt;/div&gt;&lt;div&gt;in Bezug zur Fragestellung?&lt;/div&gt;" style="edgeLabel;html=1;align=center;verticalAlign=middle;resizable=0;points=[];" vertex="1" connectable="0" parent="5vb7WeYzZgJStsn-Ry1w-16">
          <mxGeometry x="0.177" y="-6" relative="1" as="geometry">
            <mxPoint as="offset" />
          </mxGeometry>
        </mxCell>
        <mxCell id="5vb7WeYzZgJStsn-Ry1w-15" value="Spezialist" style="shape=umlActor;verticalLabelPosition=bottom;verticalAlign=top;html=1;" vertex="1" parent="1">
          <mxGeometry x="575" y="410" width="30" height="60" as="geometry" />
        </mxCell>
        <mxCell id="5vb7WeYzZgJStsn-Ry1w-19" value="&lt;div&gt;Interpretierbarkeit:&lt;/div&gt;&lt;div align=&quot;left&quot;&gt;&lt;br&gt;&lt;/div&gt;&lt;div align=&quot;left&quot;&gt;Thema 1: Bratwurst, Sauerkraut, Kartoffel&lt;br&gt;&lt;/div&gt;&lt;div align=&quot;left&quot;&gt;Thema 2: Pekingente, Kimchi, Reis&lt;br&gt;&lt;/div&gt;&lt;div&gt;&lt;br&gt;&lt;/div&gt;&lt;div&gt;&lt;br&gt;&lt;/div&gt;&lt;div&gt;&lt;div&gt;Konsistenz:&lt;/div&gt;&lt;div align=&quot;left&quot;&gt;&lt;br&gt;&lt;/div&gt;&lt;div align=&quot;left&quot;&gt;Thema 1&#39;: &lt;font color=&quot;#ff3333&quot;&gt;Pekingente&lt;/font&gt;, Sauerkraut, Kartoffel&lt;/div&gt;&lt;div align=&quot;left&quot;&gt;Thema 2&#39;: &lt;font color=&quot;#ff3333&quot;&gt;Bratwurst&lt;/font&gt;, Kimchi, Reis&lt;br&gt;&lt;/div&gt;&lt;/div&gt;" style="text;html=1;align=center;verticalAlign=middle;whiteSpace=wrap;rounded=0;" vertex="1" parent="1">
          <mxGeometry x="825" y="300" width="290" height="85" as="geometry" />
        </mxCell>
        <mxCell id="5vb7WeYzZgJStsn-Ry1w-21" style="edgeStyle=orthogonalEdgeStyle;rounded=0;orthogonalLoop=1;jettySize=auto;html=1;entryX=0.483;entryY=1.294;entryDx=0;entryDy=0;entryPerimeter=0;curved=1;" edge="1" parent="1" target="5vb7WeYzZgJStsn-Ry1w-19">
          <mxGeometry relative="1" as="geometry">
            <mxPoint x="615" y="460" as="sourcePoint" />
            <Array as="points">
              <mxPoint x="615" y="490" />
              <mxPoint x="965" y="490" />
            </Array>
          </mxGeometry>
        </mxCell>
        <mxCell id="5vb7WeYzZgJStsn-Ry1w-23" value="&lt;div&gt;Sind diese veränderte Themen verständlich?&lt;/div&gt;&lt;div&gt;Nein? -&amp;gt; die ursprüngliche Themen sind consistent&lt;br&gt; &lt;/div&gt;" style="edgeLabel;html=1;align=center;verticalAlign=middle;resizable=0;points=[];" vertex="1" connectable="0" parent="5vb7WeYzZgJStsn-Ry1w-21">
          <mxGeometry x="-0.0617" y="-1" relative="1" as="geometry">
            <mxPoint as="offset" />
          </mxGeometry>
        </mxCell>
        <mxCell id="5vb7WeYzZgJStsn-Ry1w-25" value="Themen validieren&lt;font style=&quot;font-size: 12px;&quot;&gt; &lt;span style=&quot;font-weight: normal;&quot;&gt;&lt;sup&gt;[2]&lt;/sup&gt;&lt;/span&gt;&lt;/font&gt;" style="text;align=center;fontStyle=1;verticalAlign=middle;spacingLeft=3;spacingRight=3;strokeColor=none;rotatable=0;points=[[0,0.5],[1,0.5]];portConstraint=eastwest;html=1;fontSize=19;" vertex="1" parent="1">
          <mxGeometry x="800" y="200" width="80" height="26" as="geometry" />
        </mxCell>
        <mxCell id="5vb7WeYzZgJStsn-Ry1w-29" style="edgeStyle=orthogonalEdgeStyle;rounded=0;orthogonalLoop=1;jettySize=auto;html=1;entryX=0;entryY=0.5;entryDx=0;entryDy=0;exitX=0.5;exitY=0;exitDx=0;exitDy=0;" edge="1" parent="1" source="5vb7WeYzZgJStsn-Ry1w-27" target="5vb7WeYzZgJStsn-Ry1w-9">
          <mxGeometry relative="1" as="geometry" />
        </mxCell>
        <mxCell id="5vb7WeYzZgJStsn-Ry1w-27" value="Parameter anpassen" style="ellipse;whiteSpace=wrap;html=1;fillColor=#ffffc0;strokeColor=#ff0000;fontColor=#000000;rounded=1;arcSize=40;" vertex="1" parent="1">
          <mxGeometry x="150" y="520" width="80" height="80" as="geometry" />
        </mxCell>
        <mxCell id="5vb7WeYzZgJStsn-Ry1w-45" value="" style="group" vertex="1" connectable="0" parent="1">
          <mxGeometry x="320" y="770" width="168.65" height="130" as="geometry" />
        </mxCell>
        <mxCell id="5vb7WeYzZgJStsn-Ry1w-33" value="" style="rounded=0;orthogonalLoop=1;jettySize=auto;html=1;" edge="1" parent="5vb7WeYzZgJStsn-Ry1w-45" source="5vb7WeYzZgJStsn-Ry1w-30" target="5vb7WeYzZgJStsn-Ry1w-32">
          <mxGeometry relative="1" as="geometry" />
        </mxCell>
        <mxCell id="5vb7WeYzZgJStsn-Ry1w-35" value="" style="rounded=0;orthogonalLoop=1;jettySize=auto;html=1;" edge="1" parent="5vb7WeYzZgJStsn-Ry1w-45" source="5vb7WeYzZgJStsn-Ry1w-30" target="5vb7WeYzZgJStsn-Ry1w-34">
          <mxGeometry relative="1" as="geometry" />
        </mxCell>
        <mxCell id="5vb7WeYzZgJStsn-Ry1w-30" value="" style="ellipse;whiteSpace=wrap;html=1;aspect=fixed;" vertex="1" parent="5vb7WeYzZgJStsn-Ry1w-45">
          <mxGeometry x="73.78437500000001" width="28.108003942662133" height="28.108003942662133" as="geometry" />
        </mxCell>
        <mxCell id="5vb7WeYzZgJStsn-Ry1w-43" style="rounded=0;orthogonalLoop=1;jettySize=auto;html=1;entryX=0;entryY=0;entryDx=0;entryDy=0;" edge="1" parent="5vb7WeYzZgJStsn-Ry1w-45" source="5vb7WeYzZgJStsn-Ry1w-32" target="5vb7WeYzZgJStsn-Ry1w-41">
          <mxGeometry relative="1" as="geometry" />
        </mxCell>
        <mxCell id="5vb7WeYzZgJStsn-Ry1w-32" value="" style="ellipse;whiteSpace=wrap;html=1;aspect=fixed;" vertex="1" parent="5vb7WeYzZgJStsn-Ry1w-45">
          <mxGeometry x="31.621875" y="49.18918918918919" width="28.108003942662133" height="28.108003942662133" as="geometry" />
        </mxCell>
        <mxCell id="5vb7WeYzZgJStsn-Ry1w-37" value="" style="rounded=0;orthogonalLoop=1;jettySize=auto;html=1;" edge="1" parent="5vb7WeYzZgJStsn-Ry1w-45" source="5vb7WeYzZgJStsn-Ry1w-34" target="5vb7WeYzZgJStsn-Ry1w-36">
          <mxGeometry relative="1" as="geometry" />
        </mxCell>
        <mxCell id="5vb7WeYzZgJStsn-Ry1w-40" value="" style="rounded=0;orthogonalLoop=1;jettySize=auto;html=1;" edge="1" parent="5vb7WeYzZgJStsn-Ry1w-45" source="5vb7WeYzZgJStsn-Ry1w-34" target="5vb7WeYzZgJStsn-Ry1w-39">
          <mxGeometry relative="1" as="geometry" />
        </mxCell>
        <mxCell id="5vb7WeYzZgJStsn-Ry1w-34" value="" style="ellipse;whiteSpace=wrap;html=1;aspect=fixed;" vertex="1" parent="5vb7WeYzZgJStsn-Ry1w-45">
          <mxGeometry x="114.19010416666666" y="49.18918918918919" width="28.108003942662133" height="28.108003942662133" as="geometry" />
        </mxCell>
        <mxCell id="5vb7WeYzZgJStsn-Ry1w-36" value="" style="ellipse;whiteSpace=wrap;html=1;aspect=fixed;" vertex="1" parent="5vb7WeYzZgJStsn-Ry1w-45">
          <mxGeometry x="140.54166666666669" y="101.8918918918919" width="28.108003942662133" height="28.108003942662133" as="geometry" />
        </mxCell>
        <mxCell id="5vb7WeYzZgJStsn-Ry1w-39" value="" style="ellipse;whiteSpace=wrap;html=1;aspect=fixed;" vertex="1" parent="5vb7WeYzZgJStsn-Ry1w-45">
          <mxGeometry x="91.35208333333333" y="101.8918918918919" width="28.108003942662133" height="28.108003942662133" as="geometry" />
        </mxCell>
        <mxCell id="5vb7WeYzZgJStsn-Ry1w-41" value="" style="ellipse;whiteSpace=wrap;html=1;aspect=fixed;" vertex="1" parent="5vb7WeYzZgJStsn-Ry1w-45">
          <mxGeometry x="56.21666666666667" y="101.8918918918919" width="28.108003942662133" height="28.108003942662133" as="geometry" />
        </mxCell>
        <mxCell id="5vb7WeYzZgJStsn-Ry1w-42" value="" style="ellipse;whiteSpace=wrap;html=1;aspect=fixed;" vertex="1" parent="5vb7WeYzZgJStsn-Ry1w-45">
          <mxGeometry y="101.8918918918919" width="28.108003942662133" height="28.108003942662133" as="geometry" />
        </mxCell>
        <mxCell id="5vb7WeYzZgJStsn-Ry1w-44" style="rounded=0;orthogonalLoop=1;jettySize=auto;html=1;entryX=0.796;entryY=0.092;entryDx=0;entryDy=0;entryPerimeter=0;" edge="1" parent="5vb7WeYzZgJStsn-Ry1w-45" source="5vb7WeYzZgJStsn-Ry1w-32" target="5vb7WeYzZgJStsn-Ry1w-42">
          <mxGeometry relative="1" as="geometry" />
        </mxCell>
        <mxCell id="5vb7WeYzZgJStsn-Ry1w-48" value="Wissensgraph (RDF)" style="text;html=1;align=center;verticalAlign=middle;whiteSpace=wrap;rounded=0;" vertex="1" parent="1">
          <mxGeometry x="374.33" y="920" width="60" height="30" as="geometry" />
        </mxCell>
      </root>
    </mxGraphModel>
  </diagram>
</mxfile>
